#!OML:ASF I:\Random Stuff\random\construction\7_22_03\Session 2\subj1.ASF
:FULLY-SPECIFIED
:DEGREES
1159
root 4.16553 17.7949 -11.8891 41.3892 -13.5655 -8.13411
lowerback 39.7203 -1.09444 1.39402
upperback 11.0508 -0.9713 0.806364
thorax -6.94877 -0.576835 0.522696
lowerneck -22.7648 1.48443 3.64594
upperneck 31.1437 1.32526 -2.20569
head 14.62 0.629328 -1.29593
rclavicle -3.33958e-014 -2.34566e-014
rhumerus -25.3091 27.9326 -51.4168
rradius 140.26
rwrist -0.0698484
rhand -38.4418 20.3606
rfingers 7.12502
rthumb -11.4654 -9.30587
lclavicle -3.33958e-014 -2.34566e-014
lhumerus 54.0085 -7.21467 -9.93964
lradius 121.731
lwrist 90.3218
lhand 9.65235 -272.67
lfingers 7.12502
lthumb -145.203 -293.933
rfemur -62.0615 -4.1843 33.0121
rtibia 32.4279
rfoot -12.0323 10.1291
rtoes -56.6182
lfemur -56.113 12.9082 -1.31281
ltibia 38.6992
lfoot -17.9966 6.32345
ltoes -62.4487
1160
root 4.17838 17.7993 -11.8953 41.34 -13.7331 -8.07896
lowerback 39.7099 -0.983549 1.58699
upperback 10.9772 -0.751949 0.975198
thorax -7.02554 -0.480301 0.51773
lowerneck -22.7793 1.39707 3.73993
upperneck 31.1035 1.12867 -2.10921
head 14.5978 0.573023 -1.30862
rclavicle 2.06736e-014 1.27222e-014
rhumerus -25.2668 27.7401 -51.1244
rradius 140.352
rwrist 0.322417
rhand -38.7096 19.5903
rfingers 7.12502
rthumb -11.7236 -10.0616
lclavicle 2.06736e-014 1.27222e-014
lhumerus 54.3394 -6.92065 -9.50413
lradius 121.763
lwrist 90.1081
lhand 8.38754 -273.639
lfingers 7.12502
lthumb -146.405 -293.234
rfemur -62.0109 -4.01858 32.6956
rtibia 32.3742
rfoot -11.8844 10.0318
rtoes -56.3474
lfemur -56.0384 12.8545 -1.3972
ltibia 38.6973
lfoot -18.0828 6.30834
ltoes -62.257
1161
root 4.22089 17.7947 -11.9002 41.1759 -13.4899 -7.61805
lowerback 39.7509 -1.31525 2.28188
upperback 10.8816 -0.870745 1.06601
thorax -7.14418 -0.5294 0.30185
lowerneck -22.768 1.3121 3.75196
upperneck 30.9861 0.947026 -1.94873
head 14.535 0.521812 -1.27703
rclavicle 1.59028e-015 -1.39149e-014
rhumerus -25.1512 27.4164 -50.7031
rradius 140.504
rwrist 0.401299
rhand -38.5769 18.9867
rfingers 7.12502
rthumb -11.5956 -10.6725
lclavicle 1.59028e-015 -1.39149e-014
lhumerus 54.5354 -6.57858 -9.62941
lradius 121.132
lwrist 90.3383
lhand 7.92627 -273.827
lfingers 7.12502
lthumb -146.843 -293.14
rfemur -62.145 -4.58868 32.3768
rtibia 32.3705
rfoot -11.7737 10.0945
rtoes -56.2278
lfemur -56.2205 12.0727 -1.56611
ltibia 38.6903
lfoot -18.0954 6.43937
ltoes -62.083
1162
root 4.22868 17.7936 -11.9043 41.0912 -13.7328 -7.49842
lowerback 39.7138 -1.17303 2.30778
upperback 10.834 -0.682199 1.1768
thorax -7.18272 -0.446649 0.332742
lowerneck -22.8398 1.27842 3.88019
upperneck 30.9637 0.817243 -1.86863
head 14.5368 0.494592 -1.29016
rclavicle 1.98785e-014 -9.93923e-016
rhumerus -25.0872 27.0517 -50.5628
rradius 140.645
rwrist 0.350438
rhand -37.8049 18.8297
rfingers 7.12502
rthumb -10.8511 -10.87
lclavicle 1.98785e-014 -9.93923e-016
lhumerus 54.5468 -6.21715 -9.43899
lradius 120.669
lwrist 90.7382
lhand 7.46043 -273.643
lfingers 7.12502
lthumb -147.286 -293.417
rfemur -62.1328 -4.52212 32.0726
rtibia 32.3971
rfoot -11.7262 10.1607
rtoes -56.1308
lfemur -56.1438 12.0848 -1.82054
ltibia 38.6949
lfoot -18.1718 6.56261
ltoes -62.1605
1163
root 4.23695 17.792 -11.9073 41.0335 -13.9278 -7.40061
lowerback 39.6206 -1.14361 2.42028
upperback 10.8062 -0.602502 1.24223
thorax -7.18276 -0.411515 0.312147
lowerneck -23.0248 1.32548 4.06584
upperneck 31.125 0.830858 -1.95364
head 14.6523 0.511222 -1.35689
rclavicle -3.4191e-014 3.81667e-014
rhumerus -24.9099 26.9016 -50.6263
rradius 140.62
rwrist 0.579826
rhand -37.447 18.9042
rfingers 7.12502
rthumb -10.5059 -10.8133
lclavicle -3.4191e-014 3.81667e-014
lhumerus 54.397 -5.81086 -9.08641
lradius 120.173
lwrist 91.3141
lhand 6.59867 -273.307
lfingers 7.12502
lthumb -148.106 -293.92
rfemur -62.1443 -4.48606 31.8514
rtibia 32.4337
rfoot -11.6998 10.1931
rtoes -56.0225
lfemur -56.1086 12.0779 -2.02833
ltibia 38.7127
lfoot -18.2551 6.64081
ltoes -62.1393
1164
root 4.24261 17.7929 -11.9086 40.9929 -14.0927 -7.39155
lowerback 39.5333 -1.1319 2.51193
upperback 10.807 -0.555512 1.28558
thorax -7.15315 -0.391167 0.29151
lowerneck -23.2873 1.45859 4.37279
upperneck 31.2953 0.907944 -2.02333
head 14.7938 0.570465 -1.42679
rclavicle 6.20208e-014 -1.59028e-014
rhumerus -24.5919 26.8983 -50.7471
rradius 140.64
rwrist 0.709143
rhand -37.1329 18.8354
rfingers 7.12502
rthumb -10.2029 -10.8972
lclavicle 6.20208e-014 -1.59028e-014
lhumerus 54.1551 -5.16882 -8.73416
lradius 119.538
lwrist 91.5106
lhand 6.44956 -271.892
lfingers 7.12502
lthumb -148.248 -295.363
rfemur -62.096 -4.39982 31.7207
rtibia 32.4372
rfoot -11.6788 10.1883
rtoes -55.9437
lfemur -56.0106 12.0483 -2.04201
ltibia 38.7382
lfoot -18.2921 6.546
ltoes -61.9525
1165
root 4.24708 17.7951 -11.9097 40.9511 -14.2423 -7.39918
lowerback 39.4718 -1.05175 2.69434
upperback 10.7553 -0.380882 1.42956
thorax -7.18735 -0.315163 0.28204
lowerneck -23.3615 1.38727 4.22051
upperneck 31.3538 0.780193 -1.79163
head 14.8295 0.533133 -1.32973
rclavicle 2.46493e-014 -5.66536e-015
rhumerus -24.5295 26.887 -50.6025
rradius 140.685
rwrist 0.996046
rhand -37.078 18.5856
rfingers 7.12502
rthumb -10.1499 -11.1495
lclavicle 2.46493e-014 -5.66536e-015
lhumerus 54.1944 -4.4374 -8.04244
lradius 118.76
lwrist 91.0173
lhand 1.94362 -274.863
lfingers 7.12502
lthumb -152.549 -293.157
rfemur -62.0438 -4.31859 31.6228
rtibia 32.4271
rfoot -11.6783 10.2088
rtoes -56.018
lfemur -55.9185 12.0599 -2.05772
ltibia 38.7791
lfoot -18.2871 6.50916
ltoes -61.8967
1166
root 4.25094 17.7958 -11.9119 40.9001 -14.4446 -7.36716
lowerback 39.429 -0.978804 2.71918
upperback 10.7332 -0.281561 1.48969
thorax -7.19704 -0.271949 0.294287
lowerneck -23.4805 1.40539 4.34099
upperneck 31.3644 0.707144 -1.67074
head 14.8589 0.534565 -1.31458
rclavicle -3.02153e-014 2.25621e-014
rhumerus -24.3101 26.9635 -50.4984
rradius 140.678
rwrist 1.41102
rhand -37.2705 18.038
rfingers 7.12502
rthumb -10.3355 -11.688
lclavicle -3.02153e-014 2.25621e-014
lhumerus 54.2508 -3.53057 -7.53779
lradius 117.801
lwrist 90.2276
lhand -0.471359 -276.351
lfingers 7.12502
lthumb -154.861 -292.013
rfemur -62.0274 -4.27195 31.5192
rtibia 32.4346
rfoot -11.7063 10.2725
rtoes -56.2798
lfemur -55.8556 12.1471 -2.20321
ltibia 38.8316
lfoot -18.2878 6.61264
ltoes -61.9964
1167
root 4.25337 17.7955 -11.9143 40.8494 -14.678 -7.32792
lowerback 39.4369 -0.857443 2.66524
upperback 10.6702 -0.149015 1.55612
thorax -7.26898 -0.214522 0.341878
lowerneck -23.5013 1.44061 4.49624
upperneck 31.3545 0.666068 -1.59807
head 14.859 0.546414 -1.31892
rclavicle -7.07673e-014 1.46107e-014
rhumerus -24.2261 27.1259 -50.4517
rradius 140.657
rwrist 1.83893
rhand -37.4676 17.4965
rfingers 7.12502
rthumb -10.5258 -12.22
lclavicle -7.07673e-014 1.46107e-014
lhumerus 54.4487 -2.79354 -7.22467
lradius 116.716
lwrist 89.3441
lhand -0.817412 -276.476
lfingers 7.12502
lthumb -155.193 -291.935
rfemur -62.0444 -4.24069 31.4276
rtibia 32.4952
rfoot -11.692 10.3881
rtoes -56.4558
lfemur -55.7951 12.2823 -2.39658
ltibia 38.8884
lfoot -18.3001 6.62736
ltoes -62.0012
1168
root 4.25523 17.7929 -11.9165 40.8508 -14.8422 -7.29919
lowerback 39.4451 -0.643119 2.67164
upperback 10.5329 0.134217 1.74849
thorax -7.42297 -0.0914389 0.433543
lowerneck -23.39 1.30729 4.43866
upperneck 31.329 0.476169 -1.51821
head 14.8146 0.472957 -1.31152
rclavicle -7.15625e-015 2.65378e-014
rhumerus -24.4698 27.1084 -50.238
rradius 140.683
rwrist 2.03687
rhand -37.399 17.2913
rfingers 7.12502
rthumb -10.4596 -12.4285
lclavicle -7.15625e-015 2.65378e-014
lhumerus 55.0207 -2.51007 -7.13492
lradius 115.561
lwrist 88.2589
lhand 2.77206 -276.687
lfingers 7.12502
lthumb -151.757 -291.205
rfemur -62.1252 -4.24626 31.423
rtibia 32.5662
rfoot -11.648 10.4795
rtoes -56.5687
lfemur -55.8293 12.4383 -2.6008
ltibia 38.9361
lfoot -18.176 6.69724
ltoes -62.2251
